<svg width="110" height="84" viewBox="0 0 110 84" fill="none" xmlns="http://www.w3.org/2000/svg">
<path d="M11.6052 84.0002C10.4996 84.0002 9.49456 83.5005 9.09254 82.5011C8.89153 82.1014 9.09254 81.7016 9.39406 81.5017C9.79608 81.3018 10.1981 81.5017 10.3991 81.8015C10.7006 82.5011 11.6052 82.601 12.4092 82.3012C13.4143 81.9015 14.4193 80.8022 13.9168 78.7035C13.7158 77.904 13.3138 77.2044 12.7107 76.5048C12.0072 76.9046 11.3037 77.4043 10.7006 77.804C8.59002 79.1032 6.17788 80.4024 3.46424 79.8028C2.15767 79.503 1.05211 78.7035 0.449074 77.6041C-0.0534528 76.6048 -0.153955 75.5054 0.248067 74.4061C1.15262 71.9077 4.67031 71.6079 6.78092 71.9077C8.89153 72.2075 11.2032 73.2069 12.9118 74.606L13.6153 74.2062C18.0375 71.308 23.0628 68.11 28.6911 67.4105C32.6108 66.9108 37.0331 67.8102 39.2442 70.4086C39.4452 70.3087 39.6462 70.1088 39.8472 70.0088L40.1487 69.809C42.2593 68.5098 44.3699 67.2106 52.6114 67.2106H98.7434C102.06 67.2106 103.869 66.2112 104.975 63.5129C106.08 60.9145 105.98 56.3173 105.879 52.9194C105.879 52.4197 105.879 52.02 105.879 51.6202C105.779 48.822 105.98 44.7245 108.492 42.0262C106.08 39.2279 105.879 35.2304 105.879 32.4321C105.879 32.0324 105.879 31.5327 105.879 31.1329C105.98 27.735 106.08 23.1379 104.975 20.5395C103.869 17.9411 102.06 16.8418 98.7434 16.8418H52.6114C44.3699 16.8418 42.2593 15.5426 40.1487 14.2434L39.8472 14.0435C39.6462 13.9436 39.4452 13.8436 39.2442 13.6437C36.9325 16.3421 32.5103 17.1416 28.6911 16.6419C23.0628 15.9423 18.0375 12.7443 13.6153 9.84609L12.9118 9.44634C11.2032 10.8455 8.89153 11.8449 6.78092 12.1447C4.67031 12.5444 1.25312 12.1447 0.248067 9.64622C-0.153955 8.5469 -0.0534528 7.44758 0.449074 6.4482C1.05211 5.34888 2.15767 4.54937 3.46424 4.24956C6.17788 3.64993 8.59002 4.94912 10.7006 6.24832C11.4042 6.64807 12.1077 7.14776 12.7107 7.54752C13.3138 6.84795 13.7158 6.14838 13.9168 5.34888C14.4193 3.25018 13.4143 2.15086 12.4092 1.7511C11.7057 1.45129 10.8011 1.55123 10.3991 2.2508C10.1981 2.65055 9.79608 2.75049 9.39406 2.55061C8.99204 2.35073 8.89153 1.95098 9.09254 1.55123C9.69557 0.252033 11.4042 -0.247658 12.9118 0.351971C14.6203 0.9516 16.0274 2.85042 15.3239 5.74863C15.0224 6.74801 14.6203 7.64745 13.9168 8.34702L14.3188 8.64684C18.8416 11.545 23.4648 14.5432 28.6911 15.2428C31.6058 15.6425 35.9275 15.1428 37.9376 12.7443C37.1336 11.9448 36.43 10.9454 36.028 9.94603C35.626 9.14653 35.5255 7.94727 36.028 7.04783C36.3295 6.4482 36.9325 6.14838 37.6361 6.14838C38.3396 6.14838 39.0432 6.4482 39.5457 7.04783C40.5507 8.24708 40.6513 10.2458 40.4502 11.2452C40.3497 11.7449 40.1487 12.1447 39.9477 12.5444C40.1487 12.6444 40.2492 12.7443 40.4502 12.9442L40.7518 13.1441C42.6614 14.2434 44.6715 15.4426 52.4104 15.4426H98.5424C102.462 15.4426 104.774 16.8418 106.181 20.0398C107.487 22.938 107.286 27.735 107.186 31.3328C107.186 31.8325 107.186 32.2322 107.186 32.632C107.085 35.4302 107.286 39.3278 109.799 41.7263C109.899 41.8263 110 42.0262 110 42.226C110 42.4259 109.899 42.6258 109.799 42.7257C107.286 45.1242 107.085 49.0218 107.186 51.8201C107.186 52.2199 107.186 52.7195 107.186 53.1193C107.286 56.6171 107.487 61.4142 106.181 64.4123C104.774 67.6103 102.462 69.0095 98.5424 69.0095H52.4104C44.571 69.0095 42.6614 70.2087 40.7518 71.308L40.4502 71.5079C40.2492 71.6079 40.1487 71.7078 39.9477 71.9077C40.1487 72.3074 40.3497 72.7072 40.4502 73.2069C40.7518 74.2062 40.5507 76.3049 39.5457 77.4043C39.0432 78.0039 38.3396 78.3037 37.6361 78.3037C36.9325 78.3037 36.43 77.904 36.028 77.4043C35.5255 76.5048 35.626 75.3056 36.028 74.5061C36.43 73.5067 37.1336 72.5073 37.9376 71.7078C35.9275 69.3093 31.6058 68.8096 28.6911 69.2093C23.3643 69.809 18.7411 72.907 14.3188 75.8053H13.9168C14.6203 76.6048 15.1229 77.5042 15.3239 78.4036C16.0274 81.2019 14.6203 83.1007 12.9118 83.8003C12.4092 84.0002 12.0072 84.0002 11.6052 84.0002ZM5.17283 73.4067C3.66525 73.4067 1.95665 73.8065 1.55463 75.0058C1.25312 75.9052 1.45413 76.6048 1.65514 77.0045C2.05717 77.7041 2.7607 78.2038 3.66525 78.4036C5.77587 78.9033 7.88648 77.7041 9.69558 76.6048C10.2986 76.205 10.8011 75.9052 11.4042 75.5054C9.99709 74.4061 8.08749 73.7066 6.3789 73.4067C6.07738 73.4067 5.67536 73.4067 5.17283 73.4067ZM38.7416 72.8071C38.1386 73.4067 37.7366 74.2062 37.3346 74.9058C37.1336 75.4055 37.1336 76.1051 37.3346 76.4049C37.4351 76.5048 37.4351 76.6048 37.7366 76.6048C37.9376 76.6048 38.1386 76.6048 38.4401 76.3049C39.0432 75.6054 39.1437 74.1063 39.0432 73.4067C38.8422 73.2069 38.8421 73.007 38.7416 72.8071ZM37.7366 7.54752C37.4351 7.54752 37.3346 7.64745 37.3346 7.74739C37.1336 8.04721 37.1336 8.74677 37.3346 9.24646C37.6361 9.94603 38.1386 10.7455 38.7416 11.3452C38.8421 11.1453 38.8422 10.9454 38.9427 10.7455C39.1437 10.046 38.9427 8.5469 38.3396 7.84733C38.1386 7.64745 37.9376 7.54752 37.7366 7.54752ZM4.67031 5.64869C4.36879 5.64869 3.96677 5.64869 3.66525 5.74863C2.86121 5.94851 2.05717 6.4482 1.65514 7.14776C1.45413 7.54752 1.25312 8.24708 1.55463 9.14653C2.15767 10.6456 4.77081 10.9454 6.3789 10.6456C8.08749 10.3458 9.99709 9.64622 11.4042 8.5469C10.8011 8.14714 10.2986 7.84733 9.69558 7.44758C8.188 6.64807 6.4794 5.64869 4.67031 5.64869Z" fill="white"/>
</svg>
