<svg width="110" height="84" viewBox="0 0 110 84" fill="none" xmlns="http://www.w3.org/2000/svg">
<path d="M98 83.9999C97.6 83.9999 97.1 83.9 96.7 83.8C95 83.2004 93.6 81.3016 94.3 78.4034C94.6 77.404 95 76.5045 95.7 75.805L95.3 75.5052C90.8 72.607 86.2 69.6088 81 68.9092C78.1 68.5095 73.8 69.0092 71.8 71.4077C72.6 72.2072 73.3 73.2066 73.7 74.206C74.1 75.0055 74.2 76.2047 73.7 77.1042C73.4 77.7038 72.8 78.0036 72.1 78.0036C71.4 78.0036 70.7 77.7038 70.2 77.1042C69.2 75.9049 69.1 73.9062 69.3 72.9068C69.4 72.4071 69.6 72.0073 69.8 71.6076C69.6 71.5076 69.5 71.4077 69.3 71.2078L69 71.0079C67.1 69.9086 65.1 68.7094 57.4 68.7094H11.4C7.5 68.7094 5.2 67.3102 3.8 64.1122C2.5 61.214 2.7 56.417 2.8 52.8192C2.8 52.3195 2.8 51.9198 2.8 51.52C2.9 48.7217 2.7 44.8242 0.2 42.4256C0.1 42.5256 0 42.3257 0 42.1258C0 41.9259 0.1 41.7261 0.2 41.6261C2.7 39.2276 2.9 35.33 2.8 32.5318C2.8 32.132 2.8 31.6323 2.8 31.2326C2.7 27.7347 2.5 22.9377 3.8 19.9396C5.2 16.7415 7.5 15.3424 11.4 15.3424H57.3C65.1 15.3424 67 14.1432 68.9 13.0438L69.2 12.844C69.4 12.744 69.5 12.6441 69.7 12.4442C69.5 12.0444 69.3 11.6447 69.2 11.145C68.9 10.1456 69.1 8.04693 70.1 6.94761C70.6 6.34798 71.3 6.04816 72 6.04816C72.7 6.04816 73.2 6.44792 73.6 6.94761C74.1 7.84705 74 9.04631 73.6 9.84581C73.2 10.8452 72.5 11.8446 71.7 12.6441C73.7 15.0426 78 15.5423 80.9 15.1425C86.2 14.5429 90.8 11.4448 95.2 8.54661L95.6 8.2468C94.9 7.4473 94.4 6.54785 94.2 5.64841C93.5 2.85014 94.9 0.951318 96.6 0.251752C98.2 -0.347877 99.8 0.151813 100.4 1.45101C100.6 1.85076 100.4 2.25051 100.1 2.45039C99.8 2.65027 99.3 2.45039 99.1 2.15058C98.8 1.45101 97.9 1.35107 97.1 1.65089C96.1 2.05064 95.1 3.14996 95.6 5.24866C95.9 6.1481 96.4 6.94761 97 7.54723C97.7 7.14748 98.4 6.64779 99 6.24804C101.1 4.94884 103.5 3.64965 106.2 4.24928C107.5 4.54909 108.6 5.3486 109.2 6.44792C109.7 7.4473 109.8 8.54662 109.4 9.64594C108.5 12.1444 105 12.4442 102.9 12.1444C100.8 11.8446 98.5 10.8452 96.8 9.44606L96.1 9.84581C91.7 12.744 86.7 15.942 81.1 16.6416C77.2 17.1413 72.8 16.2419 70.6 13.6435C70.4 13.7434 70.2 13.9433 70 14.0432L69.7 14.2431C67.6 15.5423 65.5 16.8415 57.3 16.8415H11.4C8.1 16.8415 6.3 17.8409 5.2 20.5392C4.1 23.1376 4.2 27.7347 4.3 31.1326C4.3 31.6323 4.3 32.0321 4.3 32.4318C4.4 35.2301 4.2 39.3276 1.7 42.0259C4.1 44.8242 4.3 48.8217 4.3 51.6199C4.3 52.0197 4.3 52.5194 4.3 52.9191C4.2 56.317 4.1 60.9142 5.2 63.5126C6.3 66.111 8.1 67.2103 11.4 67.2103H57.3C65.5 67.2103 67.6 68.5095 69.7 69.8087L70 70.1085C70.2 70.2084 70.4 70.3084 70.6 70.5083C72.9 67.8099 77.3 67.0104 81.1 67.5101C86.7 68.2097 91.7 71.4077 96.1 74.3059L96.8 74.7057C98.5 73.3065 100.8 72.3071 102.9 72.0073C105 71.6076 108.4 72.0073 109.4 74.5058C109.8 75.6051 109.7 76.7044 109.2 77.7038C108.6 78.8031 107.5 79.6026 106.2 79.9024C103.5 80.5021 101.1 79.2029 99 77.9037C98.3 77.5039 97.6 77.0042 97 76.6045C96.4 77.304 96 78.0036 95.8 78.8031C95.3 80.9018 96.3 82.0011 97.3 82.4009C98 82.7007 98.9 82.6008 99.3 81.9012C99.5 81.5014 99.9 81.4015 100.3 81.6014C100.7 81.8013 100.8 82.201 100.6 82.6008C100.1 83.5002 99.1 83.9999 98 83.9999ZM98.1 75.6051C98.7 76.0049 99.2 76.3047 99.8 76.7044C101.6 77.8037 103.7 79.003 105.8 78.5033C106.6 78.3034 107.4 77.8037 107.8 77.1042C108 76.7044 108.3 76.0049 107.9 75.1054C107.3 73.6063 104.8 73.3065 103.1 73.6063C101.4 73.8062 99.5 74.5058 98.1 75.6051ZM70.9 72.8068C70.8 73.0067 70.8 73.2066 70.7 73.4065C70.5 74.106 70.7 75.6051 71.3 76.3047C71.6 76.6045 71.8 76.6045 72 76.6045C72.2 76.6045 72.3 76.5045 72.4 76.4046C72.6 76.1048 72.6 75.4052 72.4 74.9055C72 74.206 71.5 73.5064 70.9 72.8068ZM71.9 7.54723C71.7 7.54723 71.5 7.54723 71.3 7.84705C70.7 8.54662 70.6 10.0457 70.7 10.7453C70.8 10.9451 70.8 11.145 70.9 11.3449C71.5 10.7453 71.9 9.94575 72.3 9.24618C72.5 8.74649 72.5 8.04693 72.3 7.74711C72.3 7.64717 72.2 7.54723 71.9 7.54723C72 7.54723 71.9 7.54723 71.9 7.54723ZM98.1 8.64655C99.5 9.74587 101.4 10.4454 103.1 10.7453C104.8 11.0451 107.3 10.7453 107.9 9.24618C108.2 8.34674 108 7.64717 107.8 7.24742C107.4 6.54785 106.7 6.04816 105.8 5.84829C103.7 5.3486 101.6 6.54785 99.8 7.64717C99.2 7.94699 98.7 8.2468 98.1 8.64655Z" fill="white"/>
</svg>
